<svg xmlns="http://www.w3.org/2000/svg" width="230" height="290" fill="none" viewBox="0 0 230 290">
  <path fill="#fff" fill-rule="evenodd" d="M116.215.974c-9.453 0-17.118 7.692-17.118 17.176v11.254l-34.771-19.31c-6.73-3.748-15.216-1.315-18.951 5.439-3.74 6.754-1.31 15.27 5.42 19.022L77.273 49.26l22.465-12.338 6.482-3.562 27.113-14.895v-.315c0-9.484-7.665-17.176-17.119-17.176M210.3 92.915l-.451-.26-54.207-31.199-27.394 16.113-.784.463 66.295 39.053c1.685 1.241 3.384 5.698 3.384 7.788v85.438c0 2.087-1.676 6.544-3.352 7.788l-72.937 42.649c-.43.187-1.815.674-4.22.674-2.411 0-3.904-.487-4.328-.674L38.033 218.07c-1.775-1.215-5.176-5.698-5.176-7.849v-85.255c0-2.145 3.485-6.64 5.263-7.849l63.614-36.703 8.048-4.381 3.547-1.933 4.379-2.381 28.661-15.603.415-.227 13.151-7.159 20.258-11.024c6.785-3.64 9.352-12.113 5.724-18.928-3.624-6.818-12.067-9.392-18.861-5.748l-17.179 9.35-5.716 3.151-10.827 5.97-15.286 8.43-11.667 6.432-2.739 1.507-14.486 7.99-3.968 2.186-24.914 13.737-28.172 15.303-10.476 5.83C11.539 98.773 0 113.125 0 124.82v85.538c0 11.694 11.501 26.052 21.588 31.905l75.459 42.748c5.042 2.923 12.422 4.395 19.061 4.395 6.625 0 13.633-1.472 18.678-4.395l75.368-42.748C220.247 236.41 230 222.052 230 210.358V124.82c0-11.694-9.599-26.046-19.7-31.905Z" clip-rule="evenodd"/>
</svg>
