<svg xmlns="http://www.w3.org/2000/svg" width="150" height="120" fill="none" viewBox="0 0 150 120">
  <path fill="#fff" d="M37.86 70.362c4.153 1.927 7.348 4.98 9.584 9.156 2.556 3.856 3.834 8.193 3.834 13.012 0 7.711-2.716 14.297-8.147 19.759C38.019 117.43 31.789 120 24.441 120c-7.029 0-12.94-2.249-17.732-6.747C2.236 108.434 0 102.49 0 95.422c0-4.177.639-8.032 1.917-11.567 1.278-3.534 3.514-8.192 6.71-13.976L45.526 0H68.53L37.86 70.362Zm81.469 0c4.153 1.927 7.348 4.98 9.585 9.156 2.556 3.856 3.834 8.193 3.834 13.012 0 7.711-2.716 14.297-8.147 19.759-5.112 5.141-11.342 7.711-18.69 7.711-7.03 0-12.94-2.249-17.732-6.747-4.473-4.819-6.71-10.763-6.71-17.831 0-4.177.64-8.032 1.918-11.567 1.278-3.534 3.514-8.192 6.709-13.976L126.997 0H150l-30.671 70.362Z"/>
</svg>
